<svg width="142" height="49" viewBox="0 0 142 49" fill="none" xmlns="http://www.w3.org/2000/svg">
<path d="M44.3821 31.1138C43.6102 30.2912 43.2576 29.2415 43.4101 28.1541C43.5435 27.1518 44.0581 26.2818 44.8968 25.6577C45.4114 25.2605 45.926 25.0336 46.3835 24.9107V23.8989C46.374 23.8989 46.374 23.8894 46.3644 23.8894C44.8682 22.6034 44.0772 20.9202 44.0772 19.0385C44.0772 17.3836 44.5823 15.9558 45.583 14.8116C45.8307 14.5279 46.0976 14.2726 46.3835 14.0267V0.107422H0V46.1301H46.3835V32.6363C45.6306 32.2108 44.9635 31.7096 44.4107 31.1422L44.3821 31.1138Z" fill="#F6921E"/>
<path d="M56.838 23.0114C55.8946 22.5102 54.6175 22.113 52.9974 21.8104C51.8061 21.593 50.9103 21.3565 50.2908 21.1012C49.6713 20.8459 49.252 20.5528 49.0233 20.2124C48.7946 19.8814 48.6802 19.5126 48.6802 19.106C48.6802 18.4441 49.0138 17.924 49.6809 17.5458C50.348 17.1675 51.2057 16.9784 52.2445 16.9784C53.1117 16.9784 53.8646 17.0919 54.5127 17.3188C55.1607 17.5458 55.7516 17.9335 56.2948 18.4914C56.5998 18.7656 56.9619 18.9453 57.4003 19.0209C57.8292 19.0966 58.2009 19.0304 58.5058 18.8129C58.8489 18.5765 59.0395 18.2833 59.0586 17.9429C59.0776 17.6025 58.9633 17.2715 58.706 16.95C58.0579 16.1368 57.1907 15.4938 56.0947 15.0399C55.0082 14.5766 53.7503 14.3496 52.3207 14.3496C51.1962 14.3496 50.1383 14.5293 49.1281 14.8791C48.1274 15.229 47.3078 15.768 46.6789 16.4867C46.0499 17.2053 45.7354 18.1131 45.7354 19.2006C45.7354 20.4204 46.2309 21.4606 47.2221 22.3211C48.2132 23.1816 49.8048 23.8151 51.9872 24.2217C53.674 24.5243 54.8462 24.912 55.5229 25.3943C56.19 25.8765 56.5236 26.4628 56.5236 27.1437C56.5045 27.8339 56.1519 28.4013 55.4752 28.8457C54.7986 29.2996 53.7789 29.5171 52.416 29.5171C51.3963 29.5171 50.4814 29.3469 49.6618 29.0065C48.8422 28.6661 48.2132 28.2595 47.7844 27.7867C47.527 27.4841 47.203 27.3139 46.8123 27.276C46.4215 27.2288 46.0308 27.3611 45.6496 27.6637C45.3065 27.9191 45.1064 28.25 45.0492 28.6472C44.992 29.0443 45.1159 29.4037 45.4209 29.7252C46.1547 30.4722 47.1554 31.0774 48.4324 31.5218C49.7095 31.9757 51.0532 32.1932 52.4827 32.1932C53.9695 32.1932 55.2274 31.9662 56.2567 31.5218C57.286 31.0679 58.0674 30.4533 58.6202 29.6779C59.1729 28.893 59.4493 28.0042 59.4493 26.9924C59.4493 26.1602 59.2492 25.4132 58.8489 24.7607C58.4487 24.0988 57.7815 23.522 56.838 23.0114Z" fill="#485756"/>
<path d="M66.2634 14.3105C65.8059 14.3105 65.4438 14.4524 65.1579 14.7266C64.8815 15.0008 64.7385 15.3696 64.7385 15.8235V30.3859C64.7385 30.8397 64.8815 31.1991 65.1579 31.4828C65.4342 31.757 65.8059 31.8988 66.2634 31.8988C66.7208 31.8988 67.0829 31.757 67.3689 31.4828C67.6452 31.2085 67.7882 30.8397 67.7882 30.3859V15.8141C67.7882 15.3602 67.6452 15.0008 67.3689 14.7172C67.0829 14.4429 66.7113 14.3105 66.2634 14.3105Z" fill="#485756"/>
<path d="M69.5039 5.30859C69.0941 5.30859 68.7415 5.45989 68.4365 5.76248L65.1009 9.07211C64.8626 9.32742 64.7483 9.65838 64.7483 10.065C64.7483 10.4905 64.8912 10.8498 65.1867 11.143C65.4821 11.4361 65.8443 11.578 66.2731 11.578C66.702 11.578 67.0546 11.4361 67.3119 11.1619L70.6189 7.88064C70.7905 7.74826 70.9048 7.59696 70.962 7.4173C71.0192 7.23763 71.0382 7.04851 71.0382 6.85939C71.0382 6.43387 70.8953 6.06508 70.6189 5.76248C70.3235 5.45989 69.9518 5.30859 69.5039 5.30859Z" fill="#485756"/>
<path d="M92.2333 14.4998C91.8426 14.3296 91.4709 14.3013 91.0992 14.4242C90.7275 14.5377 90.4607 14.7741 90.2891 15.1145L84.5138 27.5965L78.6814 15.1145C78.5098 14.7741 78.2525 14.5377 77.8999 14.4242C77.5568 14.3107 77.2042 14.3296 76.8611 14.4998C76.4704 14.67 76.213 14.9254 76.0796 15.2563C75.9462 15.5873 75.9653 15.9277 76.1082 16.2681L83.1034 30.8966C83.4274 31.5396 83.9039 31.8612 84.5329 31.8612C85.1619 31.8612 85.6193 31.5396 85.9243 30.8966L92.8623 16.2398C93.0338 15.9182 93.0529 15.5873 92.929 15.2469C92.8146 14.897 92.5764 14.6511 92.2333 14.4998Z" fill="#485756"/>
<path d="M108.301 15.3513C106.957 14.5664 105.442 14.1787 103.736 14.1787C102.049 14.1787 100.534 14.5664 99.1808 15.3513C97.8275 16.1361 96.7601 17.1952 95.9691 18.538C95.1781 19.8807 94.7874 21.4031 94.7874 23.1147C94.7874 24.8073 95.159 26.3297 95.8929 27.682C96.6267 29.0342 97.6274 30.0933 98.9044 30.8687C100.181 31.6441 101.611 32.0223 103.212 32.0223C104.813 32.0223 106.233 31.6441 107.472 30.8781C108.311 30.3675 109.025 29.7245 109.626 28.968V30.4148C109.626 30.8403 109.769 31.1996 110.064 31.4928C110.36 31.7859 110.722 31.9277 111.151 31.9277C111.608 31.9277 111.97 31.7859 112.256 31.4928C112.533 31.1996 112.676 30.8403 112.676 30.4148V23.1147C112.676 21.4221 112.285 19.8996 111.494 18.5474C110.703 17.2047 109.645 16.1361 108.301 15.3513ZM108.968 26.3014C108.435 27.247 107.729 27.9846 106.834 28.533C105.938 29.0815 104.908 29.3557 103.736 29.3557C102.612 29.3557 101.592 29.0815 100.677 28.533C99.7621 27.9846 99.0378 27.2375 98.5041 26.3014C97.9704 25.3558 97.7131 24.2967 97.7131 23.1147C97.7131 21.9138 97.98 20.8452 98.5041 19.8996C99.0378 18.954 99.7526 18.2164 100.677 17.668C101.592 17.1195 102.612 16.8453 103.736 16.8453C104.899 16.8453 105.938 17.1195 106.834 17.668C107.729 18.2164 108.444 18.9635 108.968 19.8996C109.502 20.8452 109.759 21.9138 109.759 23.1147C109.759 24.2967 109.502 25.3558 108.968 26.3014Z" fill="#485756"/>
<path d="M122.492 28.9391H121.682C121.167 28.9391 120.738 28.6743 120.414 28.1353C120.09 27.5963 119.928 26.9155 119.928 26.0739V8.26811C119.928 7.81422 119.795 7.45489 119.518 7.19012C119.251 6.92535 118.889 6.79297 118.432 6.79297C117.974 6.79297 117.612 6.92535 117.345 7.19012C117.078 7.45489 116.945 7.81422 116.945 8.26811V26.0739C116.945 27.2086 117.145 28.2109 117.545 29.0809C117.946 29.9509 118.498 30.6317 119.213 31.1423C119.928 31.6435 120.748 31.8988 121.672 31.8988H121.863C122.425 31.8988 122.892 31.7664 123.254 31.5017C123.626 31.2369 123.807 30.8776 123.807 30.4237C123.807 29.9698 123.692 29.6104 123.454 29.3457C123.225 29.0715 122.901 28.9391 122.492 28.9391Z" fill="#485756"/>
<path d="M141.609 23.7759C141.867 23.5301 142 23.218 142 22.8303C142 21.1377 141.676 19.6436 141.028 18.3482C140.38 17.0527 139.446 16.0314 138.226 15.2939C137.006 14.5563 135.567 14.1875 133.899 14.1875C132.212 14.1875 130.716 14.5657 129.411 15.3317C128.105 16.0882 127.085 17.1472 126.351 18.4806C125.618 19.8233 125.246 21.3646 125.246 23.1235C125.246 24.8634 125.637 26.3953 126.409 27.738C127.19 29.0808 128.267 30.1304 129.649 30.8869C131.031 31.6434 132.603 32.0311 134.376 32.0311C135.367 32.0311 136.415 31.842 137.521 31.4637C138.626 31.0855 139.532 30.6127 140.246 30.0359C140.589 29.7805 140.751 29.4685 140.732 29.1186C140.713 28.7687 140.523 28.4378 140.18 28.1352C139.922 27.9177 139.617 27.8231 139.274 27.8326C138.931 27.842 138.607 27.9555 138.302 28.173C137.845 28.5134 137.263 28.816 136.539 29.0713C135.815 29.3267 135.1 29.459 134.385 29.459C133.137 29.459 132.022 29.1848 131.069 28.6364C130.106 28.0879 129.353 27.3409 128.801 26.3858C128.41 25.705 128.162 24.9674 128.048 24.1542H140.609C141.018 24.1447 141.352 24.0218 141.609 23.7759ZM130.707 17.5728C131.602 17.0243 132.67 16.7501 133.899 16.7501C135.024 16.7501 135.986 17.0054 136.787 17.5255C137.587 18.0361 138.197 18.7453 138.636 19.6342C138.95 20.2677 139.141 20.977 139.227 21.7429H128.086C128.2 21.0621 128.391 20.4285 128.677 19.8422C129.134 18.8683 129.811 18.1212 130.707 17.5728Z" fill="#485756"/>
<path d="M58.7442 39.9268C58.8681 39.9268 58.973 39.889 59.0587 39.8133C59.135 39.7377 59.1826 39.6431 59.1826 39.5297C59.1826 39.4067 59.1445 39.3122 59.0587 39.2365C58.9825 39.1609 58.8776 39.123 58.7442 39.123H54.5509C54.427 39.123 54.3127 39.1609 54.2364 39.246C54.1507 39.3311 54.1125 39.4351 54.1125 39.558V45.7896C54.1125 45.9125 54.1507 46.026 54.2364 46.1016C54.3222 46.1867 54.427 46.2245 54.5509 46.2245H58.7442C58.8681 46.2245 58.973 46.1867 59.0587 46.1111C59.135 46.0354 59.1826 45.9409 59.1826 45.8179C59.1826 45.7045 59.1445 45.6099 59.0587 45.5342C58.9825 45.4586 58.8776 45.4208 58.7442 45.4208H54.9893V43.0568H57.7054C57.8293 43.0568 57.9342 43.0189 58.0199 42.9433C58.0962 42.8676 58.1438 42.7731 58.1438 42.6596C58.1438 42.5367 58.1057 42.4421 58.0199 42.3665C57.9437 42.2908 57.8389 42.253 57.7054 42.253H54.9893V39.9268H58.7442Z" fill="#485756"/>
<path d="M61.7939 45.3826H61.5652C61.4222 45.3826 61.2983 45.307 61.203 45.1557C61.1077 45.0044 61.0696 44.8058 61.0696 44.5694V39.5293C61.0696 39.4064 61.0315 39.3024 60.9553 39.2268C60.879 39.1511 60.7742 39.1133 60.6503 39.1133C60.5264 39.1133 60.4216 39.1511 60.3453 39.2268C60.2691 39.3024 60.231 39.4064 60.231 39.5293V44.5694C60.231 44.8909 60.2881 45.1746 60.4025 45.4205C60.5169 45.6663 60.6693 45.8649 60.879 46.0067C61.0791 46.1486 61.3174 46.2242 61.5747 46.2242H61.6319C61.7939 46.2242 61.9178 46.1864 62.0226 46.1108C62.1275 46.0351 62.1751 45.9311 62.1751 45.8082C62.1751 45.6852 62.137 45.5812 62.0703 45.5056C62.0036 45.4205 61.9083 45.3826 61.7939 45.3826Z" fill="#485756"/>
<path d="M69.6183 41.5439C69.2371 41.3264 68.7987 41.2129 68.3126 41.2129C67.8456 41.2129 67.4168 41.3264 67.0356 41.5439C66.6544 41.7613 66.3589 42.0639 66.1302 42.4422C65.911 42.8204 65.7966 43.2554 65.7871 43.7377V47.9267C65.7871 48.0496 65.8252 48.1536 65.911 48.2387C65.9872 48.3144 66.0921 48.3522 66.2255 48.3522C66.3494 48.3522 66.4542 48.3144 66.54 48.2387C66.6162 48.1631 66.6639 48.0591 66.6639 47.9267V45.4019C66.8736 45.6667 67.1309 45.8842 67.4454 46.0355C67.7599 46.1868 68.103 46.2719 68.4842 46.2719C68.9321 46.2719 69.3419 46.1584 69.704 45.9409C70.0662 45.7234 70.3521 45.4208 70.5617 45.0426C70.7714 44.6644 70.8762 44.2294 70.8762 43.7471C70.8762 43.2649 70.7619 42.8299 70.5427 42.4516C70.3044 42.0639 69.9995 41.7613 69.6183 41.5439ZM69.7993 44.636C69.6468 44.9008 69.4467 45.1088 69.1894 45.2695C68.9321 45.4208 68.6462 45.5059 68.3221 45.5059C67.9981 45.5059 67.7122 45.4303 67.4549 45.279C67.1976 45.1277 66.9974 44.9197 66.8545 44.6454C66.7115 44.3712 66.6353 44.0781 66.6353 43.7377C66.6353 43.3972 66.7115 43.0946 66.8545 42.8299C66.9974 42.5651 67.2071 42.3476 67.4549 42.1963C67.7122 42.045 67.9981 41.9599 68.3221 41.9599C68.6462 41.9599 68.9321 42.0356 69.1894 42.1963C69.4467 42.3476 69.6468 42.5651 69.7993 42.8299C69.9518 43.0946 70.0281 43.3972 70.0281 43.7377C70.0281 44.0686 69.9518 44.3712 69.7993 44.636Z" fill="#485756"/>
<path d="M75.8128 41.5344C75.4316 41.3169 75.0028 41.2129 74.5072 41.2129C74.0211 41.2129 73.5828 41.3169 73.2016 41.5344C72.8203 41.7519 72.5154 42.045 72.3057 42.4233C72.0865 42.8015 71.9817 43.2365 71.9817 43.7377C71.9817 44.2294 72.0865 44.6644 72.3057 45.0426C72.5249 45.4208 72.8203 45.7234 73.2016 45.9315C73.5828 46.149 74.0211 46.253 74.5072 46.253C75.0028 46.253 75.4411 46.149 75.8223 45.9315C76.2036 45.714 76.499 45.4208 76.7182 45.0426C76.9374 44.6644 77.0422 44.2294 77.0422 43.7377C77.0422 43.2365 76.9278 42.8015 76.7087 42.4233C76.499 42.045 76.194 41.7424 75.8128 41.5344ZM76.0034 44.6549C75.8605 44.9197 75.6508 45.1277 75.403 45.279C75.1457 45.4303 74.8503 45.5059 74.5262 45.5059C74.1927 45.5059 73.9068 45.4303 73.6495 45.279C73.3922 45.1277 73.192 44.9197 73.0491 44.6549C72.9061 44.3901 72.8299 44.0875 72.8299 43.7377C72.8299 43.3878 72.9061 43.0852 73.0491 42.8204C73.192 42.5557 73.4017 42.3476 73.6495 42.1963C73.9068 42.045 74.2022 41.9694 74.5262 41.9694C74.8598 41.9694 75.1457 42.045 75.403 42.1963C75.6603 42.3476 75.8605 42.5557 76.0034 42.8204C76.1464 43.0852 76.2226 43.3972 76.2226 43.7377C76.2226 44.0781 76.1464 44.3901 76.0034 44.6549Z" fill="#485756"/>
<path d="M82.8079 39.1133C82.6841 39.1133 82.5792 39.1511 82.503 39.2268C82.4172 39.3024 82.3791 39.4064 82.3791 39.5388V42.0636C82.179 41.7988 81.9216 41.5908 81.6071 41.43C81.2926 41.2787 80.9496 41.1936 80.5683 41.1936C80.1204 41.1936 79.7106 41.3071 79.3485 41.5246C78.9863 41.7421 78.7004 42.0447 78.5003 42.4229C78.2906 42.8011 78.1858 43.2267 78.1858 43.7089C78.1858 44.1912 78.3002 44.6167 78.5193 45.0044C78.7385 45.3827 79.0435 45.6852 79.4247 45.9122C79.8059 46.1297 80.2348 46.2432 80.7113 46.2432C81.1878 46.2432 81.6167 46.1297 81.9979 45.9122C82.3791 45.6947 82.6841 45.3921 82.9032 45.0139C83.1224 44.6356 83.2368 44.2006 83.2368 43.7184V39.5483C83.2368 39.4253 83.1987 39.3213 83.1129 39.2362C83.0462 39.1606 82.9414 39.1133 82.8079 39.1133ZM82.1885 44.6356C82.036 44.9098 81.8359 45.1179 81.5881 45.2692C81.3308 45.4205 81.0449 45.5056 80.7113 45.5056C80.3968 45.5056 80.1014 45.4299 79.844 45.2692C79.5867 45.1179 79.3771 44.9004 79.2341 44.6356C79.0816 44.3614 79.0054 44.0683 79.0054 43.7278C79.0054 43.3874 79.0816 43.0848 79.2341 42.8201C79.3866 42.5553 79.5867 42.3473 79.844 42.196C80.1014 42.0447 80.3968 41.9596 80.7113 41.9596C81.0449 41.9596 81.3308 42.0352 81.5881 42.196C81.8454 42.3473 82.0455 42.5553 82.1885 42.8201C82.341 43.0848 82.4172 43.3874 82.4172 43.7278C82.4172 44.0588 82.341 44.3614 82.1885 44.6356Z" fill="#485756"/>
<path d="M88.3068 41.5249C87.9637 41.3169 87.5539 41.2129 87.087 41.2129C86.6104 41.2129 86.1911 41.3169 85.8194 41.5344C85.4478 41.7519 85.1619 42.045 84.9522 42.4233C84.7425 42.8015 84.6377 43.2365 84.6377 43.7377C84.6377 44.2294 84.7521 44.6644 84.9713 45.0426C85.1905 45.4208 85.4954 45.7234 85.8862 45.9315C86.2769 46.149 86.7248 46.253 87.2204 46.253C87.4968 46.253 87.8017 46.1962 88.1067 46.0922C88.4212 45.9882 88.6785 45.8558 88.8786 45.6856C88.9739 45.61 89.0216 45.5249 89.0121 45.4303C89.0025 45.3263 88.9549 45.2412 88.8596 45.1561C88.7833 45.0993 88.6976 45.071 88.6023 45.071C88.507 45.071 88.4117 45.1088 88.3259 45.1655C88.202 45.2601 88.0305 45.3452 87.8303 45.4208C87.6302 45.4965 87.4205 45.5343 87.2204 45.5343C86.8678 45.5343 86.5533 45.4587 86.2769 45.2979C86.0005 45.1466 85.7909 44.9291 85.6384 44.6644C85.524 44.4752 85.4573 44.2577 85.4287 44.0308H88.9835C89.0978 44.0308 89.1931 43.993 89.2694 43.9268C89.3456 43.8606 89.3837 43.766 89.3837 43.662C89.3837 43.1798 89.2884 42.7637 89.1074 42.3949C88.9168 42.0167 88.6499 41.733 88.3068 41.5249ZM86.1816 42.168C86.4389 42.0167 86.7343 41.9316 87.087 41.9316C87.4015 41.9316 87.6778 42.0072 87.9066 42.149C88.1353 42.2909 88.3068 42.4895 88.4307 42.7448C88.5165 42.9244 88.5737 43.123 88.6023 43.3405H85.4573C85.4859 43.1514 85.5431 42.9717 85.6193 42.8015C85.7337 42.5367 85.9243 42.3193 86.1816 42.168Z" fill="#485756"/>
<path d="M93.7202 41.3453C93.5486 41.2413 93.2913 41.1846 92.9578 41.1846C92.5956 41.1846 92.2621 41.2697 91.9666 41.4399C91.7474 41.5628 91.5663 41.7141 91.4139 41.9032V41.6574C91.4139 41.5155 91.3757 41.4115 91.309 41.3453C91.2423 41.2791 91.1375 41.2413 90.9945 41.2413C90.8611 41.2413 90.7563 41.2791 90.68 41.3548C90.6038 41.4304 90.5657 41.5344 90.5657 41.6668V45.8086C90.5657 45.9504 90.6038 46.0544 90.68 46.1206C90.7563 46.1868 90.8611 46.2247 90.9945 46.2247C91.1375 46.2247 91.2423 46.1868 91.309 46.1112C91.3757 46.0355 91.4139 45.9315 91.4139 45.7991V43.1231C91.4139 42.8394 91.4996 42.603 91.6712 42.4139C91.8427 42.2247 92.0714 42.0924 92.3764 42.0167C92.6719 41.9411 93.0149 41.9316 93.3866 41.9883C93.4724 42.0072 93.5486 42.0167 93.6249 42.0072C93.7011 41.9978 93.7583 41.9789 93.8155 41.9316C93.8631 41.8938 93.9012 41.8276 93.9298 41.7425C93.9584 41.5912 93.8917 41.4588 93.7202 41.3453Z" fill="#485756"/>
<path d="M101.992 39.1133C101.868 39.1133 101.764 39.1511 101.687 39.2268C101.602 39.3024 101.563 39.4064 101.563 39.5388V42.0636C101.363 41.7988 101.106 41.5908 100.791 41.43C100.477 41.2787 100.134 41.1936 99.7527 41.1936C99.3047 41.1936 98.8949 41.3071 98.5328 41.5246C98.1707 41.7421 97.8847 42.0447 97.6846 42.4229C97.475 42.8011 97.3701 43.2267 97.3701 43.7089C97.3701 44.1912 97.4845 44.6167 97.7037 45.0044C97.9229 45.3827 98.2278 45.6852 98.609 45.9122C98.9903 46.1297 99.4191 46.2432 99.8956 46.2432C100.372 46.2432 100.801 46.1297 101.182 45.9122C101.563 45.6947 101.868 45.3921 102.088 45.0139C102.307 44.6356 102.421 44.2006 102.421 43.7184V39.5483C102.421 39.4253 102.383 39.3213 102.307 39.2362C102.221 39.1606 102.126 39.1133 101.992 39.1133ZM101.373 44.6356C101.22 44.9098 101.02 45.1179 100.772 45.2692C100.515 45.4205 100.229 45.5056 99.8956 45.5056C99.5811 45.5056 99.2857 45.4299 99.0284 45.2692C98.7711 45.1179 98.5614 44.9004 98.4184 44.6356C98.266 44.3614 98.1897 44.0683 98.1897 43.7278C98.1897 43.3874 98.266 43.0848 98.4184 42.8201C98.5709 42.5553 98.7711 42.3473 99.0284 42.196C99.2857 42.0447 99.5811 41.9596 99.8956 41.9596C100.229 41.9596 100.515 42.0352 100.772 42.196C101.03 42.3473 101.23 42.5553 101.373 42.8201C101.525 43.0848 101.602 43.3874 101.602 43.7278C101.602 44.0588 101.525 44.3614 101.373 44.6356Z" fill="#485756"/>
<path d="M107.491 41.5249C107.148 41.3169 106.738 41.2129 106.271 41.2129C105.795 41.2129 105.375 41.3169 105.004 41.5344C104.632 41.7519 104.346 42.045 104.137 42.4233C103.927 42.8015 103.822 43.2365 103.822 43.7377C103.822 44.2294 103.936 44.6644 104.156 45.0426C104.375 45.4208 104.68 45.7234 105.07 45.9315C105.461 46.149 105.909 46.253 106.405 46.253C106.681 46.253 106.986 46.1962 107.291 46.0922C107.606 45.9882 107.863 45.8558 108.063 45.6856C108.158 45.61 108.206 45.5249 108.196 45.4303C108.187 45.3263 108.139 45.2412 108.044 45.1561C107.968 45.0993 107.882 45.071 107.787 45.071C107.691 45.071 107.596 45.1088 107.51 45.1655C107.386 45.2601 107.215 45.3452 107.015 45.4208C106.815 45.4965 106.605 45.5343 106.405 45.5343C106.052 45.5343 105.738 45.4587 105.461 45.2979C105.185 45.1466 104.975 44.9291 104.823 44.6644C104.708 44.4752 104.642 44.2577 104.613 44.0308H108.168C108.282 44.0308 108.377 43.993 108.454 43.9268C108.53 43.8606 108.568 43.766 108.568 43.662C108.568 43.1798 108.473 42.7637 108.292 42.3949C108.101 42.0167 107.834 41.733 107.491 41.5249ZM105.366 42.168C105.623 42.0167 105.919 41.9316 106.271 41.9316C106.586 41.9316 106.862 42.0072 107.091 42.149C107.32 42.2909 107.491 42.4895 107.615 42.7448C107.701 42.9244 107.758 43.123 107.787 43.3405H104.642C104.67 43.1514 104.727 42.9717 104.804 42.8015C104.918 42.5367 105.109 42.3193 105.366 42.168Z" fill="#485756"/>
<path d="M115.639 41.4209C115.334 41.2791 115.001 41.2129 114.639 41.2129C114.162 41.2129 113.743 41.3169 113.371 41.5344C113 41.7519 112.714 42.045 112.504 42.4327C112.294 42.811 112.189 43.2554 112.189 43.7377C112.189 44.2199 112.294 44.6454 112.513 45.0237C112.733 45.4019 113.028 45.7045 113.409 45.922C113.791 46.1395 114.219 46.253 114.715 46.253C115.373 46.253 115.925 46.0544 116.364 45.6478C116.44 45.5721 116.478 45.487 116.468 45.3925C116.459 45.2885 116.402 45.2033 116.306 45.1277C116.23 45.071 116.144 45.0426 116.059 45.0426C115.963 45.0521 115.868 45.0899 115.782 45.1561C115.639 45.279 115.487 45.3641 115.306 45.4208C115.134 45.4776 114.934 45.5059 114.715 45.5059C114.381 45.5059 114.086 45.4303 113.829 45.2695C113.571 45.1182 113.381 44.9102 113.228 44.6454C113.076 44.3807 113.009 44.0781 113.009 43.7377C113.009 43.3878 113.076 43.0757 113.219 42.811C113.352 42.5462 113.543 42.3382 113.791 42.1869C114.038 42.0356 114.315 41.9599 114.639 41.9599C115.115 41.9599 115.515 42.1301 115.83 42.48C115.906 42.5557 115.992 42.6029 116.087 42.6218C116.183 42.6408 116.268 42.6218 116.345 42.5651C116.449 42.4895 116.507 42.4044 116.535 42.3098C116.554 42.2152 116.526 42.1207 116.449 42.0356C116.211 41.7708 115.935 41.5533 115.639 41.4209Z" fill="#485756"/>
<path d="M121.072 41.3453C120.9 41.2413 120.643 41.1846 120.309 41.1846C119.947 41.1846 119.614 41.2697 119.318 41.4399C119.099 41.5628 118.918 41.7141 118.765 41.9032V41.6574C118.765 41.5155 118.727 41.4115 118.661 41.3453C118.594 41.2791 118.489 41.2413 118.346 41.2413C118.213 41.2413 118.108 41.2791 118.032 41.3548C117.955 41.4304 117.917 41.5344 117.917 41.6668V45.8086C117.917 45.9504 117.955 46.0544 118.032 46.1206C118.108 46.1868 118.213 46.2247 118.346 46.2247C118.489 46.2247 118.594 46.1868 118.661 46.1112C118.727 46.0355 118.765 45.9315 118.765 45.7991V43.1231C118.765 42.8394 118.851 42.603 119.023 42.4139C119.194 42.2247 119.423 42.0924 119.728 42.0167C120.023 41.9411 120.366 41.9316 120.738 41.9883C120.824 42.0072 120.9 42.0167 120.976 42.0072C121.053 41.9978 121.11 41.9789 121.167 41.9316C121.215 41.8938 121.253 41.8276 121.281 41.7425C121.31 41.5912 121.243 41.4588 121.072 41.3453Z" fill="#485756"/>
<path d="M125.341 41.5249C124.998 41.3169 124.588 41.2129 124.121 41.2129C123.645 41.2129 123.226 41.3169 122.854 41.5344C122.482 41.7519 122.196 42.045 121.987 42.4233C121.777 42.8015 121.672 43.2365 121.672 43.7377C121.672 44.2294 121.786 44.6644 122.006 45.0426C122.225 45.4208 122.53 45.7234 122.921 45.9315C123.311 46.149 123.759 46.253 124.255 46.253C124.531 46.253 124.836 46.1962 125.141 46.0922C125.456 45.9882 125.713 45.8558 125.913 45.6856C126.008 45.61 126.056 45.5249 126.046 45.4303C126.037 45.3263 125.989 45.2412 125.894 45.1561C125.818 45.0993 125.732 45.071 125.637 45.071C125.541 45.071 125.446 45.1088 125.36 45.1655C125.236 45.2601 125.065 45.3452 124.865 45.4208C124.665 45.4965 124.455 45.5343 124.255 45.5343C123.902 45.5343 123.588 45.4587 123.311 45.2979C123.035 45.1466 122.825 44.9291 122.673 44.6644C122.558 44.4752 122.492 44.2577 122.463 44.0308H126.018C126.132 44.0308 126.228 43.993 126.304 43.9268C126.38 43.8606 126.418 43.766 126.418 43.662C126.418 43.1798 126.323 42.7637 126.142 42.3949C125.951 42.0167 125.684 41.733 125.341 41.5249ZM123.216 42.168C123.473 42.0167 123.769 41.9316 124.121 41.9316C124.436 41.9316 124.712 42.0072 124.941 42.149C125.17 42.2909 125.341 42.4895 125.465 42.7448C125.551 42.9244 125.608 43.123 125.637 43.3405H122.492C122.52 43.1514 122.577 42.9717 122.654 42.8015C122.768 42.5367 122.959 42.3193 123.216 42.168Z" fill="#485756"/>
<path d="M130.621 41.4209C130.316 41.2791 129.982 41.2129 129.62 41.2129C129.144 41.2129 128.724 41.3169 128.353 41.5344C127.981 41.7519 127.695 42.045 127.485 42.4327C127.276 42.811 127.171 43.2554 127.171 43.7377C127.171 44.2199 127.276 44.6454 127.495 45.0237C127.714 45.4019 128.01 45.7045 128.391 45.922C128.772 46.1395 129.201 46.253 129.696 46.253C130.354 46.253 130.907 46.0544 131.345 45.6478C131.421 45.5721 131.459 45.487 131.45 45.3925C131.44 45.2885 131.383 45.2033 131.288 45.1277C131.212 45.071 131.126 45.0426 131.04 45.0426C130.945 45.0521 130.85 45.0899 130.764 45.1561C130.621 45.279 130.468 45.3641 130.287 45.4208C130.116 45.4776 129.916 45.5059 129.696 45.5059C129.363 45.5059 129.067 45.4303 128.81 45.2695C128.553 45.1182 128.362 44.9102 128.21 44.6454C128.067 44.3807 127.99 44.0781 127.99 43.7377C127.99 43.3878 128.057 43.0757 128.2 42.811C128.334 42.5462 128.524 42.3382 128.772 42.1869C129.02 42.0356 129.296 41.9599 129.62 41.9599C130.097 41.9599 130.497 42.1301 130.811 42.48C130.888 42.5557 130.973 42.6029 131.069 42.6218C131.164 42.6408 131.25 42.6218 131.326 42.5651C131.431 42.4895 131.488 42.4044 131.517 42.3098C131.536 42.2152 131.507 42.1207 131.431 42.0356C131.193 41.7708 130.926 41.5533 130.621 41.4209Z" fill="#485756"/>
<path d="M136.32 41.5249C135.977 41.3169 135.567 41.2129 135.1 41.2129C134.624 41.2129 134.204 41.3169 133.833 41.5344C133.461 41.7519 133.175 42.045 132.965 42.4233C132.756 42.8015 132.651 43.2365 132.651 43.7377C132.651 44.2294 132.765 44.6644 132.984 45.0426C133.204 45.4208 133.509 45.7234 133.899 45.9315C134.29 46.149 134.738 46.253 135.234 46.253C135.51 46.253 135.815 46.1962 136.12 46.0922C136.434 45.9882 136.692 45.8558 136.892 45.6856C136.987 45.61 137.035 45.5249 137.025 45.4303C137.016 45.3263 136.968 45.2412 136.873 45.1561C136.797 45.0993 136.711 45.071 136.615 45.071C136.52 45.071 136.425 45.1088 136.339 45.1655C136.215 45.2601 136.044 45.3452 135.843 45.4208C135.643 45.4965 135.434 45.5343 135.234 45.5343C134.881 45.5343 134.566 45.4587 134.29 45.2979C134.014 45.1466 133.804 44.9291 133.652 44.6644C133.537 44.4752 133.47 44.2577 133.442 44.0308H136.997C137.111 44.0308 137.206 43.993 137.283 43.9268C137.359 43.8606 137.397 43.766 137.397 43.662C137.397 43.1798 137.302 42.7637 137.121 42.3949C136.93 42.0167 136.673 41.733 136.32 41.5249ZM134.195 42.168C134.452 42.0167 134.748 41.9316 135.1 41.9316C135.415 41.9316 135.691 42.0072 135.92 42.149C136.148 42.2909 136.32 42.4895 136.444 42.7448C136.53 42.9244 136.587 43.123 136.615 43.3405H133.47C133.499 43.1514 133.556 42.9717 133.632 42.8015C133.747 42.5367 133.947 42.3193 134.195 42.168Z" fill="#485756"/>
<path d="M141.733 41.3453C141.562 41.2413 141.304 41.1846 140.971 41.1846C140.609 41.1846 140.275 41.2697 139.98 41.4399C139.761 41.5628 139.58 41.7141 139.427 41.9032V41.6574C139.427 41.5155 139.389 41.4115 139.322 41.3453C139.255 41.2791 139.151 41.2413 139.008 41.2413C138.874 41.2413 138.769 41.2791 138.693 41.3548C138.617 41.4304 138.579 41.5344 138.579 41.6668V45.8086C138.579 45.9504 138.617 46.0544 138.693 46.1206C138.769 46.1868 138.874 46.2247 139.008 46.2247C139.151 46.2247 139.255 46.1868 139.322 46.1112C139.389 46.0355 139.427 45.9315 139.427 45.7991V43.1231C139.427 42.8394 139.513 42.603 139.684 42.4139C139.856 42.2247 140.085 42.0924 140.39 42.0167C140.685 41.9411 141.028 41.9316 141.4 41.9883C141.486 42.0072 141.562 42.0167 141.638 42.0072C141.714 41.9978 141.771 41.9789 141.829 41.9316C141.876 41.8938 141.914 41.8276 141.943 41.7425C141.972 41.5912 141.905 41.4588 141.733 41.3453Z" fill="#485756"/>
<path d="M31.9738 15.3221C30.4203 15.3221 29.0099 15.7855 27.8091 16.6176V14.4521L24.0923 15.341V35.6716L27.7995 34.83V29.6291C28.9908 30.4518 30.4299 30.9246 31.9738 30.9246C36.148 30.9246 39.5312 27.4353 39.5312 23.1234C39.5312 18.8208 36.148 15.3221 31.9738 15.3221ZM31.7355 27.5772C29.2577 27.5772 27.4469 25.5252 27.4469 23.1234C27.4469 20.7215 29.2577 18.6696 31.7355 18.6696C34.2134 18.6696 36.0241 20.7215 36.0241 23.1234C36.0241 25.5252 34.2134 27.5772 31.7355 27.5772Z" fill="white"/>
<path d="M18.4219 23.067C18.4219 25.4405 17.8977 27.2655 15.2102 27.2655C12.2082 27.2655 11.8841 25.1284 11.8841 23.3885V9.78125L8.03394 10.6228V23.937C8.03394 28.996 11.5887 30.9345 15.0291 30.9345C19.5178 30.9345 22.2625 28.0693 22.2625 24.4854V9.78125L18.4123 10.6228V23.067H18.4219Z" fill="white"/>
</svg>
