<svg width="32" height="32" viewBox="0 0 32 32" fill="none" xmlns="http://www.w3.org/2000/svg">
<g clip-path="url(#clip0_7947_29932)">
<path d="M10.5908 3.10561C10.9007 2.95163 11.2683 2.96842 11.5625 3.15053C11.8567 3.33287 12.0361 3.65497 12.0361 4.00112C12.0362 9.51997 13.4042 13.4619 15.9736 16.0314C18.5431 18.6008 22.485 19.9689 28.0039 19.9689C28.3498 19.9689 28.6711 20.1476 28.8535 20.4415C29.0359 20.7358 29.0535 21.1042 28.8994 21.4142C26.6657 25.9087 22.0259 29.001 16.6621 29.0011C9.11907 29.0011 3.00391 22.886 3.00391 15.3429C3.00396 9.97903 6.09627 5.33932 10.5908 3.10561ZM10.0801 5.71889C7.01354 7.82017 5.00395 11.3477 5.00391 15.3429C5.00391 21.7814 10.2236 27.0011 16.6621 27.0011C20.6571 27.001 24.1839 24.9912 26.2852 21.9249C21.2815 21.6618 17.3287 20.2145 14.5596 17.4455C11.7904 14.6763 10.3432 10.7228 10.0801 5.71889Z" fill="#364B9F"/>
</g>
<defs>
<clipPath id="clip0_7947_29932">
<rect width="32" height="32" fill="white"/>
</clipPath>
</defs>
</svg>
