<svg width="1440" height="452" viewBox="0 0 1440 452" fill="none" xmlns="http://www.w3.org/2000/svg">
<path d="M87.1031 18.8218C-2.12671 60.4698 -93.4316 157.302 -148.422 266.628C-184.737 340.553 -182.661 381.16 -145.309 346.801C-132.859 335.347 -104.845 300.988 -83.0561 268.71C-37.4036 201.032 51.8262 116.695 99.5537 96.9119C182.558 61.511 230.286 89.6235 268.675 195.826C280.088 228.103 297.727 274.958 307.065 300.988C316.403 327.018 339.229 363.46 358.943 383.243C391.107 415.52 397.332 417.602 444.022 413.438C516.651 406.149 571.642 374.913 702.374 265.587C829.993 159.384 871.495 134.395 895.359 154.178C916.11 171.879 932.711 247.886 932.711 325.977C932.711 481.116 975.251 556.082 1060.33 556.082C1119.47 555.041 1173.42 526.929 1248.13 457.168C1338.4 372.831 1398.57 332.224 1431.78 332.224C1485.73 332.224 1526.19 416.561 1540.72 560.247C1543.83 600.854 1553.17 642.502 1561.47 651.873C1572.88 668.532 1576 668.532 1590.52 654.996C1616.46 628.966 1624.76 463.415 1602.97 397.819C1568.73 294.74 1483.65 228.103 1406.87 243.721C1355 255.175 1322.83 274.958 1247.09 343.677C1130.88 448.838 1060.33 487.363 1040.62 456.127C1036.47 449.88 1030.24 389.49 1025.05 321.812C1012.6 136.478 971.101 61.511 879.796 61.511C822.73 61.511 779.153 87.5411 647.383 197.909C532.215 294.74 487.6 321.812 440.91 321.812C410.821 321.812 397.332 299.946 362.055 193.744C309.14 31.3162 204.347 -35.3208 87.1031 18.8218Z" fill="#F59100"/>
</svg>
