<svg width="80" height="81" viewBox="0 0 80 81" fill="none" xmlns="http://www.w3.org/2000/svg">
<g clip-path="url(#clip0_1981_50080)">
<path d="M75.0508 80.5H4.94942C2.2334 80.5 0.0480957 78.2964 0.0480957 75.5928V5.40721C0.0480957 2.68793 2.24901 0.5 4.94942 0.5H75.0508C77.7668 0.5 79.9521 2.70356 79.9521 5.40721V75.5928C79.9521 78.3121 77.7668 80.5 75.0508 80.5Z" fill="#0078D7"/>
<path d="M55.0084 25.4893C55.0084 25.7237 55.0084 25.9425 54.9928 26.1769C53.1821 25.7862 51.2934 25.4736 49.3422 25.2236C49.2018 20.1757 45.0809 16.1281 40.0079 16.1281C34.9349 16.1281 30.7984 20.1757 30.6735 25.2236C28.7224 25.4736 26.8336 25.7862 25.023 26.1769C25.0073 25.9425 25.0073 25.7081 25.0073 25.4736C25.0073 17.1751 31.7193 10.4395 40.0235 10.4395C48.2808 10.4707 55.0084 17.1908 55.0084 25.4893ZM40.0703 70.5606C66.5749 59.4021 62.5321 30.9903 62.5321 30.9903C56.3508 28.6774 48.5462 27.3021 40.0391 27.3021C31.532 27.3021 23.7274 28.6774 17.5461 30.9903C17.5461 30.9903 13.5033 59.4021 40.0079 70.5606H40.0703Z" fill="white"/>
<path d="M47.3754 52.6656C47.3754 52.9938 47.3598 53.3063 47.3129 53.6189H32.7495C32.7026 53.3063 32.687 52.9938 32.687 52.6656C32.687 49.3524 34.8723 46.555 37.8849 45.633C35.8557 44.7891 34.4196 42.7887 34.4196 40.4445C34.4196 37.3345 36.9327 34.834 40.0234 34.834C43.114 34.834 45.6271 37.3501 45.6271 40.4445C45.6271 42.7887 44.1911 44.7891 42.1619 45.633C45.1901 46.5394 47.3754 49.3524 47.3754 52.6656Z" fill="#0078D7"/>
</g>
<defs>
<clipPath id="clip0_1981_50080">
<rect width="80" height="80" fill="white" transform="translate(0 0.5)"/>
</clipPath>
</defs>
</svg>
