<svg width="56" height="56" viewBox="0 0 56 56" fill="none" xmlns="http://www.w3.org/2000/svg">
<rect x="4" y="4" width="48" height="48" rx="24" fill="#FDE9CC"/>
<rect x="4" y="4" width="48" height="48" rx="24" stroke="#FEF4E6" stroke-width="8"/>
<g clip-path="url(#clip0_1981_50101)">
<rect width="24" height="24" transform="translate(16 16.001)" fill="white" fill-opacity="0.01"/>
<path d="M36.0027 20.252C37.5215 20.252 38.7527 21.4832 38.7527 23.002V29.002C38.7525 30.5206 37.5214 31.752 36.0027 31.752H29.7615C29.2476 32.1581 28.8147 32.4848 28.4978 32.7158C28.3187 32.8464 28.1768 32.947 28.0789 33.0156C28.0299 33.0499 27.9917 33.0767 27.9656 33.0947L27.9392 33.1123L23.9529 36.1016C23.8231 36.1989 23.6649 36.2519 23.5027 36.252H18.0027C17.5886 36.2518 17.2527 35.9161 17.2527 35.502C17.2528 35.0879 17.5886 34.7521 18.0027 34.752H23.2527L27.0525 31.9023L29.5027 30.5693V30.4912L27.0837 31.8799L27.0896 31.876L27.115 31.8594C27.1377 31.8437 27.1721 31.819 27.2175 31.7871C27.3084 31.7234 27.4435 31.6279 27.615 31.5029C27.9582 31.2527 28.4487 30.8842 29.0339 30.416C29.5313 30.0181 29.7284 29.6092 29.7761 29.2725C29.8247 28.9292 29.729 28.5951 29.5281 28.3271C29.1417 27.812 28.3373 27.5138 27.4187 28.126C26.3901 28.8115 25.3812 29.4417 24.6306 29.9004C24.255 30.1299 23.9435 30.3175 23.7253 30.4473C23.6163 30.5121 23.5301 30.5622 23.4714 30.5967L23.4041 30.6367L23.3806 30.6504C23.0229 30.8585 22.5637 30.7374 22.3552 30.3799C22.1468 30.0219 22.2678 29.5629 22.6257 29.3545L22.6462 29.3418L22.7107 29.3037C22.7674 29.2704 22.851 29.2207 22.9578 29.1572C23.0423 29.1069 23.1409 29.0466 23.2527 28.9795V23.2979C22.53 23.4211 21.864 23.7868 21.3699 24.3428L18.5632 27.5C18.2881 27.8094 17.8142 27.8375 17.5046 27.5625C17.1951 27.2873 17.167 26.8125 17.4421 26.5029L20.2488 23.3457C21.0952 22.3935 22.2861 21.8238 23.5515 21.7578C24.0057 20.8645 24.932 20.252 26.0027 20.252H36.0027ZM26.0027 21.752C25.3124 21.7521 24.7527 22.3117 24.7527 23.002V28.0576C25.3174 27.7036 25.9497 27.3024 26.5867 26.8779C28.1681 25.824 29.8646 26.2752 30.7283 27.4268C31.1523 27.9922 31.3691 28.7215 31.2615 29.4824L29.9207 30.252H30.0867L31.2371 29.626C31.1956 29.8385 31.128 30.0475 31.0369 30.252H36.0027C36.6929 30.252 37.2525 29.6922 37.2527 29.002V25.752H27.0027C26.5887 25.7518 26.2528 25.416 26.2527 25.002C26.2527 24.5878 26.5886 24.2521 27.0027 24.252H37.2527V23.002C37.2527 22.3116 36.693 21.752 36.0027 21.752H26.0027Z" fill="#F59100"/>
</g>
<defs>
<clipPath id="clip0_1981_50101">
<rect width="24" height="24" fill="white" transform="translate(16 16.001)"/>
</clipPath>
</defs>
</svg>
