<svg width="56" height="56" viewBox="0 0 56 56" fill="none" xmlns="http://www.w3.org/2000/svg">
<rect x="4" y="4" width="48" height="48" rx="24" fill="#FDE9CC"/>
<rect x="4" y="4" width="48" height="48" rx="24" stroke="#FEF4E6" stroke-width="8"/>
<g clip-path="url(#clip0_1981_50106)">
<rect width="24" height="24" transform="translate(16 16.001)" fill="white" fill-opacity="0.01"/>
<path d="M26.5165 18.6721C27.1257 17.4453 28.881 17.4452 29.4901 18.6721L31.913 23.552L37.3319 24.3401C38.6874 24.5371 39.2402 26.2023 38.2489 27.1624L34.3309 30.9563L35.2557 36.3157C35.4904 37.6758 34.059 38.6923 32.8505 38.0608L28.0028 35.5266L23.1561 38.0608C21.9476 38.6927 20.5162 37.6759 20.7509 36.3157L21.6747 30.9563L17.7567 27.1624C16.7658 26.2023 17.3184 24.5371 18.6737 24.3401L24.0936 23.552L26.5165 18.6721ZM28.0028 19.2522C27.9692 19.2522 27.9391 19.2606 27.9169 19.2737C27.8974 19.2852 27.8767 19.3039 27.8593 19.3391L25.2626 24.5715C25.1531 24.7921 24.9418 24.9443 24.6981 24.9797L18.8895 25.8245C18.7544 25.8441 18.7128 26.0002 18.8007 26.0852L23.0028 30.1545C23.1809 30.3271 23.2627 30.5772 23.2206 30.8215L22.2284 36.5706C22.2218 36.6089 22.2278 36.6352 22.2362 36.6545C22.2459 36.6766 22.2636 36.6999 22.2899 36.719C22.3164 36.7381 22.3457 36.7487 22.3719 36.7512C22.3952 36.7534 22.4244 36.7507 22.4608 36.7317L27.6552 34.0149C27.8728 33.9011 28.1328 33.9012 28.3505 34.0149L33.5448 36.7317C33.5813 36.7508 33.6103 36.7534 33.6337 36.7512C33.66 36.7488 33.6891 36.7382 33.7157 36.719C33.7422 36.6998 33.7607 36.6767 33.7704 36.6545C33.7788 36.6352 33.7838 36.6089 33.7772 36.5706L32.786 30.8215C32.7439 30.5772 32.8247 30.3271 33.0028 30.1545L37.2059 26.0852C37.2935 26.0002 37.2518 25.8444 37.1171 25.8245L31.3075 24.9797C31.064 24.9442 30.8535 24.7919 30.744 24.5715L28.1464 19.3391C28.1288 19.3038 28.1083 19.2852 28.0887 19.2737C28.0665 19.2606 28.0365 19.2522 28.0028 19.2522Z" fill="#F59100"/>
</g>
<defs>
<clipPath id="clip0_1981_50106">
<rect width="24" height="24" fill="white" transform="translate(16 16.001)"/>
</clipPath>
</defs>
</svg>
