<svg width="56" height="56" viewBox="0 0 56 56" fill="none" xmlns="http://www.w3.org/2000/svg">
<rect x="4" y="4" width="48" height="48" rx="24" fill="#FDE9CC"/>
<rect x="4" y="4" width="48" height="48" rx="24" stroke="#FEF4E6" stroke-width="8"/>
<g clip-path="url(#clip0_1981_50111)">
<rect width="24" height="24" transform="translate(16 16.001)" fill="white" fill-opacity="0.01"/>
<path d="M32.2546 17.252C32.6126 17.252 32.9556 17.3943 33.2087 17.6475L36.3572 20.7959C36.6103 21.049 36.7526 21.392 36.7527 21.75V37.4014C36.7527 38.1469 36.1486 38.7519 35.4031 38.752H20.6033C19.8577 38.752 19.2527 38.1469 19.2527 37.4014V18.6016C19.2527 17.856 19.8577 17.252 20.6033 17.252H32.2546ZM20.7527 37.252H35.2527V22.752H32.6033C31.8577 22.752 31.2527 22.147 31.2527 21.4014V18.752H20.7527V37.252ZM32.0027 33.252C32.4169 33.252 32.7527 33.5877 32.7527 34.002C32.7525 34.416 32.4168 34.752 32.0027 34.752H24.0027C23.5887 34.7518 23.2528 34.416 23.2527 34.002C23.2527 33.5878 23.5886 33.2521 24.0027 33.252H32.0027ZM28.0027 29.252C28.4169 29.252 28.7527 29.5877 28.7527 30.002C28.7525 30.416 28.4168 30.752 28.0027 30.752H24.0027C23.5887 30.7518 23.2528 30.416 23.2527 30.002C23.2527 29.5878 23.5886 29.2521 24.0027 29.252H28.0027ZM32.0027 25.252C32.4169 25.252 32.7527 25.5877 32.7527 26.002C32.7525 26.416 32.4168 26.752 32.0027 26.752H24.0027C23.5887 26.7518 23.2528 26.416 23.2527 26.002C23.2527 25.5878 23.5886 25.2521 24.0027 25.252H32.0027ZM32.7527 21.252H34.6921L32.7527 19.3125V21.252Z" fill="#F59100"/>
</g>
<defs>
<clipPath id="clip0_1981_50111">
<rect width="24" height="24" fill="white" transform="translate(16 16.001)"/>
</clipPath>
</defs>
</svg>
