<svg width="56" height="56" viewBox="0 0 56 56" fill="none" xmlns="http://www.w3.org/2000/svg">
<rect x="4" y="4" width="48" height="48" rx="24" fill="#FDE9CC"/>
<rect x="4" y="4" width="48" height="48" rx="24" stroke="#FEF4E6" stroke-width="8"/>
<g clip-path="url(#clip0_1981_50155)">
<rect width="24" height="24" transform="translate(16 16.001)" fill="white" fill-opacity="0.01"/>
<path d="M36.4881 18.252C37.1481 18.252 37.7117 18.7289 37.8201 19.3799L38.5243 23.6074C38.5872 23.9858 38.4904 24.4395 38.1326 24.7568C38.035 24.8434 37.9073 24.9448 37.7528 25.0508V35.002C37.7526 36.5206 36.5215 37.752 35.0028 37.752H21.0028C19.4842 37.7518 18.2529 36.5205 18.2528 35.002V25.0605C18.0922 24.9514 17.9606 24.8459 17.8602 24.7568C17.5023 24.4395 17.4056 23.9858 17.4686 23.6074L18.1727 19.3799C18.2812 18.7289 18.8448 18.252 19.5047 18.252H36.4881ZM32.9959 24.9551C32.9023 25.0186 32.7979 25.0868 32.6815 25.1533C32.1682 25.4466 31.4138 25.752 30.4959 25.752C29.5783 25.7518 28.8246 25.4466 28.3114 25.1533C28.1947 25.0866 28.0898 25.0188 27.9959 24.9551C27.9023 25.0186 27.7979 25.0868 27.6815 25.1533C27.1682 25.4466 26.4138 25.752 25.4959 25.752C24.5783 25.7518 23.8246 25.4466 23.3114 25.1533C23.1947 25.0866 23.0898 25.0188 22.9959 24.9551C22.9022 25.0187 22.797 25.0867 22.6805 25.1533C22.1672 25.4466 21.4135 25.752 20.4959 25.752C20.2311 25.7519 19.9833 25.7251 19.7528 25.6816V35.002C19.7529 35.6921 20.3126 36.2518 21.0028 36.252H24.0858V31.002C24.0858 29.4833 25.3172 28.2522 26.8358 28.252H28.8358C30.3546 28.252 31.5858 29.4832 31.5858 31.002V36.252H35.0028C35.693 36.252 36.2526 35.6922 36.2528 35.002V25.6787C36.0185 25.7237 35.7659 25.752 35.4959 25.752C34.5783 25.7518 33.8246 25.4466 33.3114 25.1533C33.1947 25.0866 33.0898 25.0188 32.9959 24.9551ZM26.8358 29.752C26.1456 29.7522 25.5858 30.3118 25.5858 31.002V36.252H30.0858V31.002C30.0858 30.3116 29.5261 29.752 28.8358 29.752H26.8358ZM18.9686 23.7285C19.2566 23.9526 19.7765 24.2519 20.4959 24.252C21.078 24.252 21.5747 24.0572 21.9364 23.8506C22.0761 23.7707 22.1921 23.6912 22.2801 23.625L22.3241 23.1846L22.6668 19.752H19.6317L18.9686 23.7285ZM23.783 23.6758C23.8594 23.73 23.9512 23.7904 24.0565 23.8506C24.418 24.0571 24.9142 24.2518 25.4959 24.252C26.0779 24.252 26.5747 24.0572 26.9364 23.8506C27.0586 23.7807 27.1629 23.711 27.2459 23.6504V19.752H24.1756L23.783 23.6758ZM28.7459 23.6504C28.829 23.7111 28.934 23.7806 29.0565 23.8506C29.418 24.0571 29.9142 24.2518 30.4959 24.252C31.0779 24.252 31.5747 24.0572 31.9364 23.8506C32.0416 23.7904 32.1334 23.73 32.2098 23.6758L31.8172 19.752H28.7459V23.6504ZM33.6678 23.1846L33.7127 23.625C33.8007 23.6912 33.9168 23.7708 34.0565 23.8506C34.418 24.0571 34.9142 24.2518 35.4959 24.252C36.2155 24.252 36.7362 23.9527 37.0243 23.7285L36.3612 19.752H33.326L33.6678 23.1846Z" fill="#F59100"/>
</g>
<defs>
<clipPath id="clip0_1981_50155">
<rect width="24" height="24" fill="white" transform="translate(16 16.001)"/>
</clipPath>
</defs>
</svg>
