<svg width="56" height="56" viewBox="0 0 56 56" fill="none" xmlns="http://www.w3.org/2000/svg">
<rect x="4" y="4" width="48" height="48" rx="24" fill="#FDE9CC"/>
<rect x="4" y="4" width="48" height="48" rx="24" stroke="#FEF4E6" stroke-width="8"/>
<g clip-path="url(#clip0_1981_50160)">
<rect width="24" height="24" transform="translate(16 16.001)" fill="white" fill-opacity="0.01"/>
<path d="M35.7332 17.8634C36.633 17.3493 37.7524 17.999 37.7527 19.0353V32.9679C37.7527 34.0044 36.6331 34.654 35.7332 34.1398L29.8035 30.7521H27.8679L28.4226 34.6359C28.6575 36.2803 27.3815 37.7518 25.7205 37.7521C24.362 37.7521 23.2096 36.753 23.0173 35.4083L22.3455 30.7052C20.0334 30.385 18.2528 28.4021 18.2527 26.0021C18.2527 23.3788 20.3794 21.2522 23.0027 21.2521H29.8035L35.7332 17.8634ZM24.5027 35.1954C24.5892 35.8013 25.1084 36.2521 25.7205 36.2521C26.4687 36.2518 27.0431 35.5886 26.9373 34.8478L26.3523 30.7521H23.8679L24.5027 35.1954ZM30.7527 22.4366V29.5665L36.2527 32.7091V19.2941L30.7527 22.4366ZM23.0027 22.7521C21.2079 22.7522 19.7527 24.2072 19.7527 26.0021C19.7528 27.7968 21.208 29.2519 23.0027 29.2521H29.2527V22.7521H23.0027Z" fill="#F59100"/>
</g>
<defs>
<clipPath id="clip0_1981_50160">
<rect width="24" height="24" fill="white" transform="translate(16 16.001)"/>
</clipPath>
</defs>
</svg>
