<svg width="56" height="56" viewBox="0 0 56 56" fill="none" xmlns="http://www.w3.org/2000/svg">
<rect x="4" y="4" width="48" height="48" rx="24" fill="#FDE9CC"/>
<rect x="4" y="4" width="48" height="48" rx="24" stroke="#FEF4E6" stroke-width="8"/>
<g clip-path="url(#clip0_1981_50165)">
<rect width="24" height="24" transform="translate(16 16.001)" fill="white" fill-opacity="0.01"/>
<path d="M32.4031 19.252C33.1486 19.252 33.7526 19.8561 33.7527 20.6016V35.4014C33.7527 36.1469 33.1486 36.7519 32.4031 36.752H23.6033C22.8577 36.752 22.2527 36.147 22.2527 35.4014V20.6016C22.2527 19.856 22.8577 19.252 23.6033 19.252H32.4031ZM23.7527 35.252H32.2527V20.752H23.7527V35.252ZM27.4558 31.499C27.7329 31.1912 28.2065 31.1663 28.5144 31.4434C28.8223 31.7204 28.8471 32.1941 28.5701 32.502L28.5603 32.5137C28.2832 32.8214 27.8086 32.8464 27.5007 32.5693C27.193 32.2922 27.1681 31.8176 27.4451 31.5098L27.4558 31.499Z" fill="#F59100"/>
</g>
<defs>
<clipPath id="clip0_1981_50165">
<rect width="24" height="24" fill="white" transform="translate(16 16.001)"/>
</clipPath>
</defs>
</svg>
