<svg width="20" height="20" viewBox="0 0 20 20" fill="none" xmlns="http://www.w3.org/2000/svg">
<g clip-path="url(#clip0_6360_11037)">
<rect width="20" height="20" fill="white" fill-opacity="0.01"/>
<path d="M10.002 1.87598C14.0055 1.87598 17.2561 5.10303 17.2939 9.09766C18.2772 9.376 18.9609 10.275 18.9609 11.3027V12.8662C18.9609 13.8939 18.2771 14.7929 17.2939 15.0713V15.418C17.2939 16.6836 16.2676 17.71 15.002 17.71H13.0205C12.763 18.4381 12.0682 18.96 11.252 18.96H8.75195C7.71669 18.9597 6.87705 18.1202 6.87695 17.085C6.87695 16.0496 7.71663 15.2102 8.75195 15.21H11.252C12.0683 15.21 12.7631 15.7317 13.0205 16.46H15.002C15.5773 16.46 16.0439 15.9933 16.0439 15.418V15.3848L15.7754 15.4521C15.0654 15.6297 14.3772 15.093 14.377 14.3613V9.80859C14.377 9.07671 15.0653 8.53922 15.7754 8.7168L16.0322 8.78125C15.8327 5.62487 13.2087 3.12598 10.002 3.12598C6.79546 3.12622 4.17219 5.62503 3.97266 8.78125L4.22949 8.7168C4.93958 8.53925 5.62695 9.0767 5.62695 9.80859V14.3613C5.62666 15.093 4.93943 15.6297 4.22949 15.4521L2.78027 15.0898C1.76012 14.8348 1.04395 13.9178 1.04395 12.8662V11.3027C1.04395 10.275 1.72764 9.376 2.71094 9.09766C2.74875 5.10319 5.99861 1.87623 10.002 1.87598ZM8.75195 16.46C8.407 16.4602 8.12695 16.74 8.12695 17.085C8.12705 17.4299 8.40706 17.7097 8.75195 17.71H11.252C11.5971 17.71 11.8769 17.43 11.877 17.085C11.877 16.7398 11.5971 16.46 11.252 16.46H8.75195ZM3.08301 10.292C2.61933 10.408 2.29395 10.8247 2.29395 11.3027V12.8662C2.29395 13.3442 2.61936 13.7609 3.08301 13.877L4.37695 14.2012V9.96875L3.08301 10.292ZM15.627 14.2012L16.9219 13.877C17.3855 13.7609 17.7109 13.3442 17.7109 12.8662V11.3027C17.7109 10.8247 17.3855 10.408 16.9219 10.292L15.627 9.96875V14.2012Z" fill="white"/>
</g>
<defs>
<clipPath id="clip0_6360_11037">
<rect width="20" height="20" fill="white"/>
</clipPath>
</defs>
</svg>
